<svg width="56" height="56" viewBox="0 0 56 56" fill="none" xmlns="http://www.w3.org/2000/svg">
<circle cx="28" cy="28" r="28" fill="#04A784"/>
<path d="M37.0856 18.9606C34.6801 16.5422 31.4771 15.2173 28.0682 15.2173C21.0446 15.2173 15.3203 20.9416 15.3203 27.9652C15.3203 30.2163 15.912 32.4031 17.0183 34.3327L15.2174 40.9446L21.9708 39.1694C23.8361 40.1857 25.9328 40.7259 28.0682 40.7259C35.0918 40.7259 40.8161 35.0016 40.8161 27.978C40.8161 24.5692 39.4911 21.3661 37.0856 18.9606ZM28.0682 38.5648C26.1644 38.5648 24.2992 38.0503 22.6655 37.0855L22.2796 36.854L18.2661 37.9088L19.3338 33.9982L19.0765 33.5995C18.0217 31.9143 17.4557 29.959 17.4557 27.9652C17.4557 22.1251 22.2152 17.3655 28.0553 17.3655C30.8854 17.3655 33.5481 18.4718 35.542 20.4785C37.5487 22.4853 38.6421 25.148 38.6421 27.978C38.6679 33.8181 33.9083 38.5648 28.0682 38.5648ZM33.8826 30.6408C33.561 30.4865 31.9916 29.7146 31.7086 29.5989C31.4128 29.496 31.2069 29.4445 30.9883 29.7532C30.7696 30.0748 30.165 30.7952 29.9849 31.001C29.8048 31.2197 29.6118 31.2454 29.2903 31.0782C28.9687 30.9238 27.9396 30.5765 26.7304 29.496C25.7785 28.647 25.1482 27.605 24.9552 27.2834C24.7751 26.9618 24.9295 26.7946 25.0967 26.6274C25.2382 26.4859 25.4183 26.2543 25.5727 26.0742C25.727 25.8941 25.7913 25.7526 25.8942 25.5468C25.9972 25.3281 25.9457 25.148 25.8685 24.9937C25.7913 24.8393 25.1482 23.2699 24.8909 22.6268C24.6336 22.0093 24.3635 22.0865 24.1705 22.0736C23.9776 22.0736 23.7717 22.0736 23.5531 22.0736C23.3344 22.0736 22.9999 22.1508 22.7041 22.4724C22.4211 22.794 21.5978 23.5658 21.5978 25.1352C21.5978 26.7045 22.7427 28.2225 22.897 28.4283C23.0514 28.647 25.1482 31.8629 28.3383 33.2393C29.0973 33.5737 29.689 33.7667 30.1521 33.9082C30.9111 34.1526 31.6057 34.114 32.1589 34.0368C32.7763 33.9468 34.0498 33.265 34.3071 32.5189C34.5772 31.7728 34.5772 31.1425 34.4872 31.001C34.3971 30.8595 34.2042 30.7952 33.8826 30.6408Z" fill="white"/>
</svg>
