<svg width="228" height="228" viewBox="0 0 228 228" fill="none" xmlns="http://www.w3.org/2000/svg">
<circle cx="114" cy="114" r="113" fill="white" stroke="#7E0ACA" stroke-width="2"/>
<g filter="url(#filter0_i_27_5)">
<path d="M83.5646 93.4032L95.7178 107.214V136.492L83.5646 121.577V93.4032Z" fill="#7002B9"/>
</g>
<g filter="url(#filter1_i_27_5)">
<path d="M132.177 90.0887L144.331 99.6726L144.331 136.492L132.177 125.627V90.0887Z" fill="#7002B9"/>
</g>
<g filter="url(#filter2_d_27_5)">
<path d="M142.121 65.9915C142.121 65.1939 142.595 64.4724 143.327 64.1558L180.206 48.2081C181.527 47.6371 183 48.6052 183 50.0439V134.492C183 135.596 182.105 136.492 181 136.492H144.121C143.016 136.492 142.121 135.596 142.121 134.492V65.9915Z" fill="#7E0ACA"/>
</g>
<g filter="url(#filter3_d_27_5)">
<path d="M46 107.861C46 107.078 46.4564 106.368 47.1681 106.042L84.0472 89.1743C85.3718 88.5684 86.879 89.5364 86.879 90.993V134.492C86.879 135.596 85.9836 136.492 84.879 136.492H48C46.8954 136.492 46 135.596 46 134.492V107.861Z" fill="#7E0ACA"/>
</g>
<g filter="url(#filter4_d_27_5)">
<path d="M93.5081 85.4949C93.5081 84.7082 93.9693 83.9946 94.6865 83.6714L131.566 67.0537C132.889 66.4573 134.387 67.4254 134.387 68.8771V134.492C134.387 135.596 133.492 136.492 132.387 136.492H95.5081C94.4036 136.492 93.5081 135.596 93.5081 134.492V85.4949Z" fill="#7E0ACA"/>
</g>
<path d="M49.5232 149.726V172.12H45.6626V149.726H49.5232ZM58.6594 159.524V162.584H48.5388V159.524H58.6594ZM59.936 149.726V152.802H48.5388V149.726H59.936ZM66.6113 155.478V172.12H62.8892V155.478H66.6113ZM62.6431 151.11C62.6431 150.546 62.8276 150.08 63.1968 149.711C63.5762 149.331 64.0991 149.141 64.7656 149.141C65.4219 149.141 65.9397 149.331 66.3191 149.711C66.6985 150.08 66.8882 150.546 66.8882 151.11C66.8882 151.664 66.6985 152.125 66.3191 152.494C65.9397 152.864 65.4219 153.048 64.7656 153.048C64.0991 153.048 63.5762 152.864 63.1968 152.494C62.8276 152.125 62.6431 151.664 62.6431 151.11ZM74.3479 159.031V172.12H70.6411V155.478H74.1326L74.3479 159.031ZM73.6865 163.184L72.4868 163.169C72.4971 161.99 72.6611 160.908 72.979 159.923C73.3071 158.939 73.7583 158.093 74.3325 157.386C74.917 156.678 75.6143 156.135 76.4243 155.755C77.2344 155.366 78.1367 155.171 79.1313 155.171C79.9312 155.171 80.6541 155.284 81.3 155.509C81.9563 155.724 82.5151 156.078 82.9766 156.57C83.4482 157.063 83.8071 157.703 84.0532 158.493C84.2993 159.272 84.4224 160.231 84.4224 161.369V172.12H80.7002V161.354C80.7002 160.554 80.5823 159.923 80.3464 159.462C80.1208 158.99 79.7876 158.657 79.3467 158.462C78.916 158.257 78.3777 158.155 77.7317 158.155C77.0959 158.155 76.5269 158.288 76.0244 158.555C75.522 158.821 75.0964 159.185 74.7478 159.647C74.4094 160.108 74.1479 160.641 73.9634 161.246C73.7788 161.851 73.6865 162.497 73.6865 163.184ZM97.5884 168.783V160.846C97.5884 160.252 97.4807 159.739 97.2654 159.308C97.05 158.878 96.7219 158.544 96.281 158.308C95.8503 158.073 95.3069 157.955 94.6506 157.955C94.0457 157.955 93.5227 158.057 93.0818 158.262C92.6409 158.467 92.2974 158.744 92.0513 159.093C91.8052 159.442 91.6821 159.836 91.6821 160.277H87.9907C87.9907 159.621 88.1497 158.985 88.4675 158.37C88.7854 157.755 89.2468 157.206 89.8518 156.724C90.4568 156.242 91.1797 155.863 92.0205 155.586C92.8613 155.309 93.8047 155.171 94.8506 155.171C96.1016 155.171 97.209 155.381 98.1729 155.801C99.147 156.222 99.9109 156.858 100.465 157.709C101.029 158.549 101.311 159.606 101.311 160.877V168.275C101.311 169.034 101.362 169.716 101.464 170.321C101.577 170.916 101.736 171.433 101.941 171.874V172.12H98.1421C97.9678 171.721 97.8293 171.213 97.7268 170.598C97.6345 169.972 97.5884 169.367 97.5884 168.783ZM98.1267 162L98.1575 164.292H95.4966C94.8096 164.292 94.2046 164.358 93.6816 164.492C93.1587 164.615 92.7229 164.799 92.3743 165.045C92.0256 165.291 91.7642 165.589 91.5898 165.937C91.4155 166.286 91.3284 166.681 91.3284 167.122C91.3284 167.563 91.4309 167.968 91.636 168.337C91.8411 168.696 92.1384 168.978 92.5281 169.183C92.928 169.388 93.4099 169.49 93.9739 169.49C94.7327 169.49 95.394 169.337 95.958 169.029C96.5322 168.711 96.9834 168.327 97.3115 167.875C97.6396 167.414 97.814 166.978 97.8345 166.568L99.0342 168.214C98.9111 168.634 98.7009 169.085 98.4036 169.567C98.1062 170.049 97.7166 170.511 97.2346 170.952C96.7629 171.382 96.1938 171.736 95.5273 172.013C94.8711 172.29 94.1123 172.428 93.251 172.428C92.1641 172.428 91.1951 172.213 90.344 171.782C89.4929 171.341 88.8264 170.752 88.3445 170.013C87.8625 169.265 87.6216 168.419 87.6216 167.475C87.6216 166.594 87.7856 165.814 88.1138 165.138C88.4521 164.451 88.9443 163.876 89.5903 163.415C90.2466 162.953 91.0464 162.605 91.9897 162.369C92.9331 162.123 94.0098 162 95.2197 162H98.1267ZM108.863 159.031V172.12H105.156V155.478H108.647L108.863 159.031ZM108.201 163.184L107.001 163.169C107.012 161.99 107.176 160.908 107.494 159.923C107.822 158.939 108.273 158.093 108.847 157.386C109.432 156.678 110.129 156.135 110.939 155.755C111.749 155.366 112.651 155.171 113.646 155.171C114.446 155.171 115.169 155.284 115.815 155.509C116.471 155.724 117.03 156.078 117.491 156.57C117.963 157.063 118.322 157.703 118.568 158.493C118.814 159.272 118.937 160.231 118.937 161.369V172.12H115.215V161.354C115.215 160.554 115.097 159.923 114.861 159.462C114.635 158.99 114.302 158.657 113.861 158.462C113.431 158.257 112.892 158.155 112.246 158.155C111.611 158.155 111.042 158.288 110.539 158.555C110.037 158.821 109.611 159.185 109.262 159.647C108.924 160.108 108.663 160.641 108.478 161.246C108.293 161.851 108.201 162.497 108.201 163.184ZM127.52 172.428H127.335C126.699 172.428 126.099 172.31 125.535 172.074C124.971 171.828 124.479 171.495 124.059 171.075C123.638 170.654 123.305 170.162 123.059 169.598C122.823 169.034 122.705 168.434 122.705 167.798V160.692C122.705 160.057 122.823 159.457 123.059 158.893C123.305 158.329 123.638 157.837 124.059 157.416C124.479 156.996 124.971 156.668 125.535 156.432C126.099 156.186 126.699 156.063 127.335 156.063H128.596C129.232 156.063 129.832 156.186 130.396 156.432C130.96 156.668 131.452 156.996 131.872 157.416C132.293 157.837 132.621 158.329 132.857 158.893C133.103 159.457 133.226 160.057 133.226 160.692V161.323L131.334 161.631V160.585C131.334 160.205 131.262 159.852 131.119 159.524C130.975 159.185 130.78 158.893 130.534 158.647C130.288 158.401 129.996 158.206 129.657 158.062C129.329 157.919 128.976 157.847 128.596 157.847H127.335C126.956 157.847 126.597 157.919 126.258 158.062C125.93 158.206 125.643 158.401 125.397 158.647C125.151 158.893 124.956 159.185 124.812 159.524C124.669 159.852 124.597 160.205 124.597 160.585V167.906C124.597 168.285 124.669 168.644 124.812 168.983C124.956 169.311 125.151 169.598 125.397 169.844C125.643 170.09 125.93 170.285 126.258 170.429C126.597 170.572 126.956 170.644 127.335 170.644H128.596C128.976 170.644 129.329 170.572 129.657 170.429C129.996 170.285 130.288 170.09 130.534 169.844C130.78 169.598 130.975 169.311 131.119 168.983C131.262 168.644 131.334 168.285 131.334 167.906V166.86L133.226 167.168V167.798C133.226 168.414 133.108 168.993 132.872 169.536C132.646 170.08 132.334 170.562 131.934 170.982C131.544 171.392 131.083 171.726 130.55 171.982C130.016 172.238 129.447 172.387 128.842 172.428L128.119 173.689C128.212 173.73 128.34 173.802 128.504 173.905C128.668 174.017 128.827 174.166 128.981 174.351C129.145 174.535 129.283 174.756 129.396 175.012C129.509 175.268 129.565 175.566 129.565 175.904C129.565 176.294 129.493 176.648 129.35 176.965C129.217 177.283 129.022 177.55 128.765 177.765C128.519 177.991 128.222 178.16 127.873 178.273C127.525 178.396 127.145 178.457 126.735 178.457C126.274 178.457 125.853 178.365 125.474 178.181C125.105 178.006 124.771 177.77 124.474 177.473L125.197 176.366C125.248 176.427 125.32 176.499 125.412 176.581C125.505 176.663 125.617 176.74 125.751 176.812C125.894 176.883 126.048 176.945 126.212 176.996C126.386 177.047 126.571 177.073 126.766 177.073C127.145 177.073 127.463 176.965 127.719 176.75C127.986 176.535 128.119 176.232 128.119 175.843C128.119 175.597 128.068 175.381 127.966 175.197C127.873 175.012 127.74 174.858 127.566 174.735C127.402 174.612 127.207 174.525 126.981 174.474C126.766 174.422 126.535 174.407 126.289 174.428L127.52 172.428ZM141.824 172.428H141.639C141.003 172.428 140.404 172.31 139.84 172.074C139.276 171.828 138.783 171.495 138.363 171.075C137.943 170.654 137.609 170.162 137.363 169.598C137.127 169.034 137.01 168.434 137.01 167.798V160.692C137.01 160.057 137.127 159.457 137.363 158.893C137.609 158.329 137.943 157.837 138.363 157.416C138.783 156.996 139.276 156.668 139.84 156.432C140.404 156.186 141.003 156.063 141.639 156.063H142.9C143.536 156.063 144.136 156.186 144.7 156.432C145.264 156.668 145.756 156.996 146.177 157.416C146.597 157.837 146.925 158.329 147.161 158.893C147.407 159.457 147.53 160.057 147.53 160.692V161.323L145.638 161.631V160.585C145.638 160.205 145.566 159.852 145.423 159.524C145.279 159.185 145.084 158.893 144.838 158.647C144.592 158.401 144.3 158.206 143.962 158.062C143.634 157.919 143.28 157.847 142.9 157.847H141.639C141.26 157.847 140.901 157.919 140.562 158.062C140.234 158.206 139.947 158.401 139.701 158.647C139.455 158.893 139.26 159.185 139.117 159.524C138.973 159.852 138.901 160.205 138.901 160.585V167.906C138.901 168.285 138.973 168.644 139.117 168.983C139.26 169.311 139.455 169.598 139.701 169.844C139.947 170.09 140.234 170.285 140.562 170.429C140.901 170.572 141.26 170.644 141.639 170.644H142.9C143.28 170.644 143.634 170.572 143.962 170.429C144.3 170.285 144.592 170.09 144.838 169.844C145.084 169.598 145.279 169.311 145.423 168.983C145.566 168.644 145.638 168.285 145.638 167.906V166.86L147.53 167.168V167.798C147.53 168.414 147.412 168.993 147.176 169.536C146.951 170.08 146.638 170.562 146.238 170.982C145.848 171.392 145.387 171.726 144.854 171.982C144.321 172.238 143.751 172.387 143.146 172.428L142.424 173.689C142.516 173.73 142.644 173.802 142.808 173.905C142.972 174.017 143.131 174.166 143.285 174.351C143.449 174.535 143.587 174.756 143.7 175.012C143.813 175.268 143.869 175.566 143.869 175.904C143.869 176.294 143.798 176.648 143.654 176.965C143.521 177.283 143.326 177.55 143.07 177.765C142.823 177.991 142.526 178.16 142.177 178.273C141.829 178.396 141.449 178.457 141.039 178.457C140.578 178.457 140.157 178.365 139.778 178.181C139.409 178.006 139.076 177.77 138.778 177.473L139.501 176.366C139.552 176.427 139.624 176.499 139.717 176.581C139.809 176.663 139.922 176.74 140.055 176.812C140.198 176.883 140.352 176.945 140.516 176.996C140.691 177.047 140.875 177.073 141.07 177.073C141.449 177.073 141.767 176.965 142.024 176.75C142.29 176.535 142.424 176.232 142.424 175.843C142.424 175.597 142.372 175.381 142.27 175.197C142.177 175.012 142.044 174.858 141.87 174.735C141.706 174.612 141.511 174.525 141.285 174.474C141.07 174.422 140.839 174.407 140.593 174.428L141.824 172.428ZM160.711 168.783V160.846C160.711 160.252 160.604 159.739 160.388 159.308C160.173 158.878 159.845 158.544 159.404 158.308C158.973 158.073 158.43 157.955 157.774 157.955C157.169 157.955 156.646 158.057 156.205 158.262C155.764 158.467 155.42 158.744 155.174 159.093C154.928 159.442 154.805 159.836 154.805 160.277H151.114C151.114 159.621 151.273 158.985 151.591 158.37C151.908 157.755 152.37 157.206 152.975 156.724C153.58 156.242 154.303 155.863 155.144 155.586C155.984 155.309 156.928 155.171 157.974 155.171C159.225 155.171 160.332 155.381 161.296 155.801C162.27 156.222 163.034 156.858 163.588 157.709C164.152 158.549 164.434 159.606 164.434 160.877V168.275C164.434 169.034 164.485 169.716 164.587 170.321C164.7 170.916 164.859 171.433 165.064 171.874V172.12H161.265C161.091 171.721 160.952 171.213 160.85 170.598C160.758 169.972 160.711 169.367 160.711 168.783ZM161.25 162L161.281 164.292H158.62C157.933 164.292 157.328 164.358 156.805 164.492C156.282 164.615 155.846 164.799 155.497 165.045C155.149 165.291 154.887 165.589 154.713 165.937C154.539 166.286 154.451 166.681 154.451 167.122C154.451 167.563 154.554 167.968 154.759 168.337C154.964 168.696 155.261 168.978 155.651 169.183C156.051 169.388 156.533 169.49 157.097 169.49C157.856 169.49 158.517 169.337 159.081 169.029C159.655 168.711 160.106 168.327 160.435 167.875C160.763 167.414 160.937 166.978 160.958 166.568L162.157 168.214C162.034 168.634 161.824 169.085 161.527 169.567C161.229 170.049 160.84 170.511 160.358 170.952C159.886 171.382 159.317 171.736 158.65 172.013C157.994 172.29 157.235 172.428 156.374 172.428C155.287 172.428 154.318 172.213 153.467 171.782C152.616 171.341 151.949 170.752 151.468 170.013C150.986 169.265 150.745 168.419 150.745 167.475C150.745 166.594 150.909 165.814 151.237 165.138C151.575 164.451 152.067 163.876 152.713 163.415C153.37 162.953 154.169 162.605 155.113 162.369C156.056 162.123 157.133 162 158.343 162H161.25ZM177.646 167.614C177.646 167.245 177.553 166.911 177.369 166.614C177.184 166.306 176.831 166.03 176.308 165.784C175.795 165.537 175.036 165.312 174.031 165.107C173.149 164.912 172.339 164.681 171.601 164.415C170.873 164.138 170.248 163.805 169.725 163.415C169.202 163.025 168.797 162.564 168.51 162.031C168.222 161.497 168.079 160.882 168.079 160.185C168.079 159.508 168.228 158.867 168.525 158.262C168.822 157.657 169.248 157.124 169.802 156.663C170.355 156.201 171.027 155.837 171.816 155.571C172.616 155.304 173.508 155.171 174.493 155.171C175.887 155.171 177.082 155.407 178.076 155.878C179.081 156.34 179.85 156.97 180.384 157.77C180.917 158.56 181.183 159.452 181.183 160.446H177.477C177.477 160.005 177.364 159.595 177.138 159.216C176.923 158.826 176.595 158.514 176.154 158.278C175.713 158.032 175.159 157.909 174.493 157.909C173.857 157.909 173.329 158.011 172.908 158.216C172.498 158.411 172.191 158.667 171.986 158.985C171.791 159.303 171.693 159.652 171.693 160.031C171.693 160.308 171.745 160.559 171.847 160.785C171.96 161 172.145 161.2 172.401 161.385C172.657 161.559 173.006 161.723 173.447 161.877C173.898 162.031 174.462 162.179 175.139 162.323C176.41 162.589 177.502 162.933 178.415 163.353C179.338 163.764 180.045 164.297 180.537 164.953C181.03 165.599 181.276 166.419 181.276 167.414C181.276 168.152 181.117 168.829 180.799 169.444C180.491 170.049 180.04 170.577 179.445 171.028C178.851 171.469 178.138 171.813 177.307 172.059C176.487 172.305 175.564 172.428 174.539 172.428C173.031 172.428 171.755 172.161 170.709 171.628C169.663 171.085 168.868 170.393 168.325 169.552C167.792 168.701 167.525 167.819 167.525 166.906H171.109C171.15 167.593 171.34 168.142 171.678 168.552C172.027 168.952 172.457 169.244 172.97 169.429C173.493 169.603 174.031 169.69 174.585 169.69C175.251 169.69 175.81 169.603 176.261 169.429C176.713 169.244 177.056 168.998 177.292 168.691C177.528 168.373 177.646 168.014 177.646 167.614Z" fill="#7E0ACA"/>
<defs>
<filter id="filter0_i_27_5" x="83.5646" y="93.4032" width="16.1532" height="47.0887" filterUnits="userSpaceOnUse" color-interpolation-filters="sRGB">
<feFlood flood-opacity="0" result="BackgroundImageFix"/>
<feBlend mode="normal" in="SourceGraphic" in2="BackgroundImageFix" result="shape"/>
<feColorMatrix in="SourceAlpha" type="matrix" values="0 0 0 0 0 0 0 0 0 0 0 0 0 0 0 0 0 0 127 0" result="hardAlpha"/>
<feOffset dx="4" dy="4"/>
<feGaussianBlur stdDeviation="2"/>
<feComposite in2="hardAlpha" operator="arithmetic" k2="-1" k3="1"/>
<feColorMatrix type="matrix" values="0 0 0 0 0 0 0 0 0 0 0 0 0 0 0 0 0 0 0.37 0"/>
<feBlend mode="normal" in2="shape" result="effect1_innerShadow_27_5"/>
</filter>
<filter id="filter1_i_27_5" x="132.177" y="90.0887" width="16.1532" height="50.4032" filterUnits="userSpaceOnUse" color-interpolation-filters="sRGB">
<feFlood flood-opacity="0" result="BackgroundImageFix"/>
<feBlend mode="normal" in="SourceGraphic" in2="BackgroundImageFix" result="shape"/>
<feColorMatrix in="SourceAlpha" type="matrix" values="0 0 0 0 0 0 0 0 0 0 0 0 0 0 0 0 0 0 127 0" result="hardAlpha"/>
<feOffset dx="4" dy="4"/>
<feGaussianBlur stdDeviation="2"/>
<feComposite in2="hardAlpha" operator="arithmetic" k2="-1" k3="1"/>
<feColorMatrix type="matrix" values="0 0 0 0 0 0 0 0 0 0 0 0 0 0 0 0 0 0 0.37 0"/>
<feBlend mode="normal" in2="shape" result="effect1_innerShadow_27_5"/>
</filter>
<filter id="filter2_d_27_5" x="136.121" y="44.0417" width="52.879" height="100.45" filterUnits="userSpaceOnUse" color-interpolation-filters="sRGB">
<feFlood flood-opacity="0" result="BackgroundImageFix"/>
<feColorMatrix in="SourceAlpha" type="matrix" values="0 0 0 0 0 0 0 0 0 0 0 0 0 0 0 0 0 0 127 0" result="hardAlpha"/>
<feOffset dy="2"/>
<feGaussianBlur stdDeviation="3"/>
<feComposite in2="hardAlpha" operator="out"/>
<feColorMatrix type="matrix" values="0 0 0 0 0 0 0 0 0 0 0 0 0 0 0 0 0 0 0.14 0"/>
<feBlend mode="normal" in2="BackgroundImageFix" result="effect1_dropShadow_27_5"/>
<feBlend mode="normal" in="SourceGraphic" in2="effect1_dropShadow_27_5" result="shape"/>
</filter>
<filter id="filter3_d_27_5" x="40" y="84.9907" width="52.879" height="59.5012" filterUnits="userSpaceOnUse" color-interpolation-filters="sRGB">
<feFlood flood-opacity="0" result="BackgroundImageFix"/>
<feColorMatrix in="SourceAlpha" type="matrix" values="0 0 0 0 0 0 0 0 0 0 0 0 0 0 0 0 0 0 127 0" result="hardAlpha"/>
<feOffset dy="2"/>
<feGaussianBlur stdDeviation="3"/>
<feComposite in2="hardAlpha" operator="out"/>
<feColorMatrix type="matrix" values="0 0 0 0 0 0 0 0 0 0 0 0 0 0 0 0 0 0 0.14 0"/>
<feBlend mode="normal" in2="BackgroundImageFix" result="effect1_dropShadow_27_5"/>
<feBlend mode="normal" in="SourceGraphic" in2="effect1_dropShadow_27_5" result="shape"/>
</filter>
<filter id="filter4_d_27_5" x="87.5081" y="62.8748" width="52.879" height="81.6171" filterUnits="userSpaceOnUse" color-interpolation-filters="sRGB">
<feFlood flood-opacity="0" result="BackgroundImageFix"/>
<feColorMatrix in="SourceAlpha" type="matrix" values="0 0 0 0 0 0 0 0 0 0 0 0 0 0 0 0 0 0 127 0" result="hardAlpha"/>
<feOffset dy="2"/>
<feGaussianBlur stdDeviation="3"/>
<feComposite in2="hardAlpha" operator="out"/>
<feColorMatrix type="matrix" values="0 0 0 0 0 0 0 0 0 0 0 0 0 0 0 0 0 0 0.14 0"/>
<feBlend mode="normal" in2="BackgroundImageFix" result="effect1_dropShadow_27_5"/>
<feBlend mode="normal" in="SourceGraphic" in2="effect1_dropShadow_27_5" result="shape"/>
</filter>
</defs>
</svg>
